Coordinates
version=1
nRows=17
nColumns=40
inDegrees=yes

Units are S.I. units (second, meters, Newtons, ...)
If the header above contains a line with 'inDegrees', this indicates whether rotational values are in degrees (yes) or radians (no).

endheader
time	pelvis_tilt	pelvis_list	pelvis_rotation	pelvis_tx	pelvis_ty	pelvis_tz	hip_flexion_r	hip_adduction_r	hip_rotation_r	knee_angle_r	knee_angle_r_beta	ankle_angle_r	subtalar_angle_r	mtp_angle_r	hip_flexion_l	hip_adduction_l	hip_rotation_l	knee_angle_l	knee_angle_l_beta	ankle_angle_l	subtalar_angle_l	mtp_angle_l	lumbar_extension	lumbar_bending	lumbar_rotation	arm_flex_r	arm_add_r	arm_rot_r	elbow_flex_r	pro_sup_r	wrist_flex_r	wrist_dev_r	arm_flex_l	arm_add_l	arm_rot_l	elbow_flex_l	pro_sup_l	wrist_flex_l	wrist_dev_l
      0.39000000	     11.56473899	     -0.65108039	     -0.51398340	      0.34287342	      0.95999831	     -0.22742464	    -10.49032289	      5.14732766	     -1.08574554	     10.28539828	      0.17951406	      9.06916144	      0.00000000	      0.00000000	      8.38893979	     -1.22172934	      0.28220623	     52.52910219	      0.91680579	      6.22061633	      0.00000000	      0.00000000	    -30.70434201	     -0.51392385	      7.11886165	      4.16440371	     -3.25190760	     -1.28552784	     39.95784890	     89.19177592	    -17.45734981	     -8.84918279	      0.52334366	     -5.77047519	     18.21380223	     32.92607761	     89.39864065	      2.24421601	     13.70600361
      0.40000000	     11.42974028	     -0.46971859	     -0.44991547	      0.35248261	      0.95940124	     -0.22734926	    -11.05100530	      5.01936185	     -1.09249397	     10.16186252	      0.17735796	      9.61255451	      0.00000000	      0.00000000	      9.17491551	     -0.96841384	      0.18559482	     50.33899479	      0.87858120	      6.56527084	      0.00000000	      0.00000000	    -30.51522595	     -0.74980038	      7.27530015	      4.37393102	     -3.38329203	     -1.09758242	     40.48232973	     89.19154229	    -17.43689142	     -8.89052781	      0.29169669	     -5.68741467	     18.09575269	     32.65391839	     89.40082699	      2.17849332	     13.67590028
      0.41000000	     11.37972393	     -0.18498586	     -0.43473063	      0.36219195	      0.95882808	     -0.22739474	    -11.68303636	      4.75265551	     -1.07764455	     10.11230552	      0.17649303	     10.26894888	      0.00000000	      0.00000000	      9.72463335	     -0.59972284	     -0.06324610	     47.84559152	      0.83506310	      6.83139693	      0.00000000	      0.00000000	    -30.39147385	     -1.07229812	      7.38446603	      4.60237497	     -3.51361879	     -0.91912735	     40.95997867	     89.18806908	    -17.42721827	     -8.89435901	      0.04990077	     -5.62066569	     17.94619307	     32.39248447	     89.39648382	      2.09506226	     13.59931273
      0.42000000	     11.45001098	      0.09526650	     -0.46300280	      0.37183975	      0.95839301	     -0.22738531	    -12.43330074	      4.48429311	     -0.99666842	     10.07361745	      0.17581779	     10.90097388	      0.00000000	      0.00000000	     10.03533146	     -0.24551609	     -0.42316401	     45.10095897	      0.78716023	      6.86769431	      0.00000000	      0.00000000	    -30.42460409	     -1.43060445	      7.51079914	      4.85669215	     -3.64396015	     -0.67805295	     41.40471742	     89.19364267	    -17.41885314	     -8.85291363	     -0.20075356	     -5.56323957	     17.74290932	     32.25898884	     89.39436510	      1.96583350	     13.43516415
      0.43000000	     11.22338932	      0.18313042	     -0.25568007	      0.38133480	      0.95732495	     -0.22791146	    -12.83313845	      4.44787081	     -1.19279687	     10.06993799	      0.17575357	     11.29526573	      0.00000000	      0.00000000	     10.69059426	      0.02087223	     -0.36104127	     42.36088448	      0.73933691	      7.15720604	      0.00000000	      0.00000000	    -30.14622421	     -1.48388614	      7.60273091	      5.05338446	     -3.81788016	     -0.47085021	     41.83168348	     89.19171212	    -17.40934594	     -8.88824332	     -0.35103699	     -5.42566183	     17.50287307	     31.97569860	     89.39423076	      1.87844394	     13.43577466
      0.44000000	     11.22421312	      0.48494058	     -0.12413306	      0.39107518	      0.95656973	     -0.22836821	    -13.49035812	      4.17180395	     -1.33520548	     10.09313760	      0.17615848	     11.93226116	      0.00000000	      0.00000000	     10.90310794	      0.47760425	     -0.58735525	     39.26138386	      0.68524042	      7.18374726	      0.00000000	      0.00000000	    -30.10941954	     -1.74681391	      7.49549213	      5.31539980	     -3.90747099	     -0.26431541	     42.18915253	     89.19386925	    -17.41848344	     -8.87637930	     -0.59289374	     -5.35525100	     17.27742585	     31.76036574	     89.39277598	      1.77564485	     13.34901787
      0.45000000	     11.05567683	      0.52021325	      0.06641146	      0.40049053	      0.95547294	     -0.22896834	    -13.91721461	      4.17988960	     -1.49445170	     10.15934492	      0.17731402	     12.26869736	      0.00000000	      0.00000000	     11.28735427	      0.76019570	     -0.34042267	     36.14307419	      0.63081565	      7.27170622	      0.00000000	      0.00000000	    -29.88562918	     -1.76586833	      7.65207003	      5.52078300	     -4.10621431	     -0.03619256	     42.48432341	     89.19556991	    -17.41232813	     -8.88333111	     -0.70269758	     -5.23658001	     16.99389265	     31.60294834	     89.38972582	      1.67830675	     13.31350479
      0.46000000	     11.21718758	      0.83342922	      0.16557121	      0.41020926	      0.95488209	     -0.22954468	    -14.75888276	      3.87167730	     -1.65732150	     10.15820882	      0.17729419	     12.82673732	      0.00000000	      0.00000000	     11.09567323	      1.28714164	     -0.44815224	     32.68726919	      0.57050047	      7.04902484	      0.00000000	      0.00000000	    -30.01510834	     -2.04357921	      7.49659986	      5.83662754	     -4.18984767	      0.23372484	     42.72865232	     89.20516001	    -17.43758127	     -8.85094628	     -0.93768849	     -5.17129753	     16.68828576	     31.50665243	     89.39028470	      1.53888949	     13.16697925
      0.47000000	     11.15648894	      0.90460781	      0.37736205	      0.41975724	      0.95384671	     -0.23030556	    -15.30287448	      3.83971400	     -1.77667137	     10.25446883	      0.17897424	     13.13230104	      0.00000000	      0.00000000	     11.15026056	      1.63238666	     -0.10077022	     29.33541192	      0.51199953	      6.97219372	      0.00000000	      0.00000000	    -29.91316210	     -2.06195108	      7.46842117	      6.08828756	     -4.31633302	      0.45972524	     42.92436844	     89.20662337	    -17.46388214	     -8.84404751	     -1.07556804	     -5.05799169	     16.35594193	     31.35120226	     89.38931362	      1.41047991	     13.10373324
      0.48000000	     10.87472880	      0.69929281	      0.61619133	      0.42924397	      0.95235084	     -0.23103023	    -15.58258643	      4.10519151	     -1.88142869	     10.36696125	      0.18093761	     13.38411190	      0.00000000	      0.00000000	     11.45251696	      1.67533205	      0.40526482	     26.14851110	      0.45637761	      6.91929761	      0.00000000	      0.00000000	    -29.59230579	     -1.81490783	      7.58592080	      6.27741626	     -4.45667156	      0.62087259	     43.13873647	     89.21020382	    -17.46862770	     -8.86573297	     -1.20802981	     -4.95944666	     16.17423770	     31.31135927	     89.38693107	      1.34739644	     13.08704729
      0.49000000	     11.29294897	      1.08278747	      0.69406887	      0.43907533	      0.95210966	     -0.23163543	    -16.69905616	      3.71437547	     -2.06983202	     10.39650384	      0.18145322	     13.73855035	      0.00000000	      0.00000000	     10.66787646	      2.32602425	      0.86770264	     22.53359129	      0.39328536	      6.37022349	      0.00000000	      0.00000000	    -29.98857810	     -2.19796867	      7.37922706	      6.63464931	     -4.49022713	      0.95259418	     43.10412176	     89.21330279	    -17.53443047	     -8.83488122	     -1.37014929	     -4.90823534	     15.76787602	     31.26146607	     89.38682014	      1.16145883	     12.89169585
      0.50000000	     11.11204527	      0.93751714	      0.86243373	      0.44866705	      0.95074834	     -0.23230913	    -17.04347142	      3.88607902	     -2.05291074	     10.62532278	      0.18544687	     13.91368574	      0.00000000	      0.00000000	     10.69098481	      2.41502902	      1.72032923	     19.47149909	      0.33984177	      6.23710657	      0.00000000	      0.00000000	    -29.75096898	     -2.05383683	      7.49731555	      6.84214344	     -4.58122399	      1.09693554	     43.11606330	     89.21398042	    -17.56606647	     -8.83113214	     -1.43837007	     -4.78778537	     15.49377404	     31.14944390	     89.38778212	      1.06661620	     12.87268933
      0.51000000	     10.94565214	      0.77440990	      1.02646141	      0.45846272	      0.94934656	     -0.23296699	    -17.42588449	      4.07105557	     -2.10009751	     10.82980404	      0.18901574	     14.12047184	      0.00000000	      0.00000000	     10.66214460	      2.43025700	      2.39030057	     16.64794172	      0.29056140	      6.06889317	      0.00000000	      0.00000000	    -29.51404720	     -1.87406139	      7.57316095	      7.01047933	     -4.63514310	      1.20665469	     43.13806382	     89.21525616	    -17.58812577	     -8.83924499	     -1.54326765	     -4.72633731	     15.33868905	     31.12229552	     89.38145184	      1.00814707	     12.84346366
      0.52000000	     11.01127507	      0.76459087	      1.12876019	      0.46835151	      0.94843721	     -0.23348888	    -18.04845264	      4.08222851	     -2.08713744	     11.07955474	      0.19337471	     14.29710467	      0.00000000	      0.00000000	     10.29353715	      2.57303418	      3.19793786	     14.00296685	      0.24439788	      5.67282109	      0.00000000	      0.00000000	    -29.51896903	     -1.91028780	      7.64998311	      7.20578241	     -4.65107724	      1.33593145	     42.99766159	     89.21722020	    -17.61847886	     -8.83408707	     -1.57800614	     -4.66535029	     15.13818385	     31.04943312	     89.38687214	      0.92833188	     12.78301832
      0.53000000	     11.31141978	      0.83755276	      1.18146779	      0.47848899	      0.94787308	     -0.23403890	    -18.96930860	      3.98847229	     -2.04997671	     11.25829735	      0.19649436	     14.36993960	      0.00000000	      0.00000000	      9.62322999	      2.74857498	      3.57042244	     11.67387486	      0.20374755	      5.17796296	      0.00000000	      0.00000000	    -29.76646252	     -1.98404088	      7.52648543	      7.43916248	     -4.60333484	      1.52366909	     42.89638810	     89.21952442	    -17.69901652	     -8.90397201	     -1.71223008	     -4.63969494	     14.90076969	     31.07891635	     89.38580167	      0.81379285	     12.65757511
      0.54000000	     11.26169035	      0.71287498	      1.22935147	      0.48866105	      0.94673948	     -0.23456103	    -19.42606800	      4.07566456	     -2.03367040	     11.61245004	      0.20267549	     14.42102315	      0.00000000	      0.00000000	      9.45080379	      2.70329887	      3.98327936	      9.98776594	      0.17431940	      5.12187159	      0.00000000	      0.00000000	    -29.63082569	     -1.92668569	      7.68210206	      7.53493567	     -4.59470422	      1.59621487	     42.72658506	     89.22041635	    -17.74788093	     -8.91919230	     -1.77694519	     -4.60151004	     14.73674163	     31.15695380	     89.38812189	      0.74986737	     12.60384729
      0.55000000	     11.25457977	      0.63988300	      1.25890055	      0.49893353	      0.94572973	     -0.23513078	    -19.89993237	      4.09121265	     -2.01693334	     12.03119201	      0.20998391	     14.43515410	      0.00000000	      0.00000000	      9.23181602	      2.70166473	      4.21920692	      8.72999215	      0.15236711	      5.08217079	      0.00000000	      0.00000000	    -29.54547847	     -1.90940942	      7.77642898	      7.60854404	     -4.54602470	      1.62659803	     42.56083954	     89.22171284	    -17.79064250	     -8.94446923	     -1.83455358	     -4.56774417	     14.63297775	     31.21169609	     89.38545793	      0.70558057	     12.55594585
